<svg width="144" height="144" viewBox="0 0 144 144" xmlns="http://www.w3.org/2000/svg" xmlns:xlink="http://www.w3.org/1999/xlink"><title>def welcome</title><defs><rect id="a" x=".226" y=".275" width="143.549" height="143.289" rx="100"/><filter x="-50%" y="-50%" width="200%" height="200%" filterUnits="objectBoundingBox" id="b"><feGaussianBlur stdDeviation="1" in="SourceGraphic" result="blur"/></filter></defs><g fill="none" fill-rule="evenodd"><g><mask id="c" fill="#fff"><use xlink:href="#a"/></mask><use fill="#32435C" xlink:href="#a"/><text opacity=".3" filter="url(#b)" mask="url(#c)" font-family="monospace" font-size="13" letter-spacing=".2"> <tspan x="-28" y="-11" fill="#FFF"> </tspan> <tspan x="-24.207" y="-11" fill="#4CB8FB"> </tspan> <tspan x="-20.414" y="-11" fill="#64C4FF">aws_instance</tspan> <tspan x="61.941" y="-11" fill="#FFF">:</tspan> <tspan x="-28" y="7" fill="#FFF"> </tspan> <tspan x="-12.829" y="7" fill="#64C4FF">vm_1</tspan> <tspan x="20.268" y="7" fill="#FFF">:</tspan> <tspan x="-28" y="25" fill="#FFF"> </tspan> <tspan x="7.586" y="25" fill="#64C4FF">instance_type</tspan> <tspan x="93.657" y="25" fill="#FFF">: t2.micro</tspan> <tspan x="-28" y="43" fill="#FFF"> </tspan> <tspan x="7.586" y="43" fill="#64C4FF">user_data</tspan> <tspan x="67.771" y="43" fill="#FFF">: |</tspan> <tspan x="-28" y="61" fill="#FFF"> apt-get -y install mysql node</tspan> <tspan x="-28" y="79" fill="#FFF"> git clone git@github.com/koding/project.git</tspan> <tspan x="-28" y="97" fill="#FFF"> chef-solo -c solo.rb -j web.json </tspan> <tspan x="-28" y="115" fill="#FFF"> </tspan> <tspan x="-20.414" y="115" fill="#64C4FF">slack</tspan> <tspan x="11.791" y="115" fill="#FFF">:</tspan> <tspan x="-28" y="133" fill="#FFF"> something: true</tspan>  <tspan x="-28" y="169" fill="#D98AE5"> </tspan> </text></g><text font-family="Soleil, sans-serif" font-size="14" font-weight="600" letter-spacing=".292" fill="#FFF"><tspan x="49.73" y="107.445">Koding</tspan></text><path d="M50.69 47.135h40.62v8.535H50.69v-8.535zm0 29.874h40.62v8.535H50.69V77.01zm0-14.938H82.76v8.536H50.69v-8.536z" fill="#FFF"/></g></svg>
